<?xml version="1.0" encoding="UTF-8" standalone="no"?>
<!-- Created with Inkscape (http://www.inkscape.org/) -->

<svg
   width="512"
   height="512"
   viewBox="0 0 135.46666 135.46667"
   version="1.1"
   id="svg1"
   xml:space="preserve"
   xmlns="http://www.w3.org/2000/svg"
   xmlns:svg="http://www.w3.org/2000/svg"><defs
     id="defs1" /><g
     id="layer1"><path
       style="color:#000000;fill:#f9f9f9;fill-opacity:1;stroke:#000000;stroke-width:3;stroke-opacity:1;stroke-dasharray:none"
       d="m 66.190378,4.3617699 c -20.873156,0 -37.855843,16.9887511 -37.855843,37.8619061 0,20.873157 16.982687,37.861908 37.855843,37.861908 20.873153,0 37.861902,-16.988751 37.861902,-37.861908 0,-20.873155 -16.988749,-37.8619061 -37.861902,-37.8619061 z m 0,6.2102511 c 17.516889,0 31.651656,14.134766 31.651656,31.651655 0,17.516889 -14.134767,31.651659 -31.651656,31.651659 -17.51689,0 -31.645591,-14.13477 -31.645591,-31.651659 0,-17.516889 14.128701,-31.651655 31.645591,-31.651655 z"
       id="path1" /><path
       style="color:#000000;fill:#f9f9f9;fill-opacity:1;stroke:#000000;stroke-width:3;stroke-opacity:1;stroke-dasharray:none"
       d="M 69.999008,97.600432 V 131.12608 H 126.62509 V 97.600432 Z m 6.210252,6.210248 h 44.20558 v 21.10515 H 76.20926 Z"
       id="rect2" /><path
       style="color:#000000;fill:#f9f9f9;fill-opacity:1;stroke:#000000;stroke-width:3;stroke-opacity:1;stroke-dasharray:none"
       d="M 7.1080926,85.192058 V 91.40231 H 126.84948 v -6.210252 z"
       id="path8" /><path
       style="color:#000000;fill:#f9f9f9;fill-opacity:1;stroke:#000000;stroke-width:3;stroke-opacity:1;stroke-dasharray:none"
       d="M 7.3567452,97.503395 V 131.12608 H 63.982828 V 97.503395 h -6.21025 V 124.91583 H 13.566996 V 97.503395 Z"
       id="rect8" /></g></svg>
